<mxfile host="Electron" modified="2023-09-27T02:46:26.765Z" agent="Mozilla/5.0 (Macintosh; Intel Mac OS X 10_15_7) AppleWebKit/537.36 (KHTML, like Gecko) draw.io/21.8.2 Chrome/114.0.5735.289 Electron/25.8.1 Safari/537.36" etag="kSnGiMfDPvjfvZ6VxJHx" version="21.8.2" type="device">
  <diagram name="Page-1" id="LGAIZuidWEjy7gRInL3R">
    <mxGraphModel dx="984" dy="647" grid="1" gridSize="10" guides="1" tooltips="1" connect="1" arrows="1" fold="1" page="1" pageScale="1" pageWidth="827" pageHeight="1169" math="0" shadow="0">
      <root>
        <mxCell id="0" />
        <mxCell id="1" parent="0" />
        <mxCell id="U0gTRQSScCt8Vi8ky5Mu-1" value="&lt;span style=&quot;font-size: 25px;&quot;&gt;The Barrie Art Gallery&lt;/span&gt;" style="whiteSpace=wrap;html=1;aspect=fixed;" parent="1" vertex="1">
          <mxGeometry x="339" y="90" width="150" height="150" as="geometry" />
        </mxCell>
        <mxCell id="ruOW2-8IQQ_5RWlgZaE9-2" value="" style="endArrow=classic;html=1;rounded=0;exitX=1;exitY=0.5;exitDx=0;exitDy=0;" edge="1" parent="1" source="U0gTRQSScCt8Vi8ky5Mu-1">
          <mxGeometry width="50" height="50" relative="1" as="geometry">
            <mxPoint x="390" y="350" as="sourcePoint" />
            <mxPoint x="580" y="130" as="targetPoint" />
            <Array as="points" />
          </mxGeometry>
        </mxCell>
        <mxCell id="ruOW2-8IQQ_5RWlgZaE9-3" value="&lt;font style=&quot;font-size: 18px;&quot;&gt;Filter&lt;/font&gt;" style="whiteSpace=wrap;html=1;aspect=fixed;" vertex="1" parent="1">
          <mxGeometry x="580" y="80" width="80" height="80" as="geometry" />
        </mxCell>
        <mxCell id="ruOW2-8IQQ_5RWlgZaE9-12" value="" style="edgeStyle=orthogonalEdgeStyle;rounded=0;orthogonalLoop=1;jettySize=auto;html=1;" edge="1" parent="1" source="ruOW2-8IQQ_5RWlgZaE9-4" target="U0gTRQSScCt8Vi8ky5Mu-1">
          <mxGeometry relative="1" as="geometry" />
        </mxCell>
        <mxCell id="ruOW2-8IQQ_5RWlgZaE9-4" value="&lt;font style=&quot;font-size: 21px;&quot;&gt;Up Coming Events&lt;/font&gt;" style="whiteSpace=wrap;html=1;aspect=fixed;" vertex="1" parent="1">
          <mxGeometry x="354" y="280" width="120" height="120" as="geometry" />
        </mxCell>
        <mxCell id="ruOW2-8IQQ_5RWlgZaE9-5" value="&lt;font style=&quot;font-size: 21px;&quot;&gt;Donations&lt;/font&gt;" style="whiteSpace=wrap;html=1;aspect=fixed;" vertex="1" parent="1">
          <mxGeometry x="354" y="440" width="120" height="120" as="geometry" />
        </mxCell>
        <mxCell id="ruOW2-8IQQ_5RWlgZaE9-6" value="&lt;font style=&quot;font-size: 21px;&quot;&gt;About Us&lt;/font&gt;" style="whiteSpace=wrap;html=1;aspect=fixed;" vertex="1" parent="1">
          <mxGeometry x="354" y="600" width="120" height="120" as="geometry" />
        </mxCell>
        <mxCell id="ruOW2-8IQQ_5RWlgZaE9-7" value="&lt;font style=&quot;font-size: 19px;&quot;&gt;Address and Contact info&lt;/font&gt;" style="whiteSpace=wrap;html=1;aspect=fixed;" vertex="1" parent="1">
          <mxGeometry x="170" y="760" width="110" height="110" as="geometry" />
        </mxCell>
        <mxCell id="ruOW2-8IQQ_5RWlgZaE9-8" value="&lt;font style=&quot;font-size: 23px;&quot;&gt;Account&lt;/font&gt;" style="whiteSpace=wrap;html=1;aspect=fixed;" vertex="1" parent="1">
          <mxGeometry x="359" y="760" width="110" height="110" as="geometry" />
        </mxCell>
        <mxCell id="ruOW2-8IQQ_5RWlgZaE9-9" value="&lt;font style=&quot;font-size: 21px;&quot;&gt;Tickets&amp;nbsp;&lt;/font&gt;" style="whiteSpace=wrap;html=1;aspect=fixed;" vertex="1" parent="1">
          <mxGeometry x="640" y="370" width="110" height="110" as="geometry" />
        </mxCell>
        <mxCell id="ruOW2-8IQQ_5RWlgZaE9-10" value="&lt;font style=&quot;font-size: 18px;&quot;&gt;Social Media&lt;/font&gt;" style="whiteSpace=wrap;html=1;aspect=fixed;" vertex="1" parent="1">
          <mxGeometry x="550" y="760" width="110" height="110" as="geometry" />
        </mxCell>
        <mxCell id="ruOW2-8IQQ_5RWlgZaE9-11" value="" style="endArrow=classic;html=1;rounded=0;exitX=0.5;exitY=1;exitDx=0;exitDy=0;entryX=0.5;entryY=0;entryDx=0;entryDy=0;" edge="1" parent="1" source="U0gTRQSScCt8Vi8ky5Mu-1" target="ruOW2-8IQQ_5RWlgZaE9-4">
          <mxGeometry width="50" height="50" relative="1" as="geometry">
            <mxPoint x="390" y="420" as="sourcePoint" />
            <mxPoint x="420" y="280" as="targetPoint" />
            <Array as="points" />
          </mxGeometry>
        </mxCell>
        <mxCell id="ruOW2-8IQQ_5RWlgZaE9-13" value="" style="endArrow=classic;html=1;rounded=0;exitX=0.5;exitY=1;exitDx=0;exitDy=0;entryX=0.5;entryY=0;entryDx=0;entryDy=0;" edge="1" parent="1" source="ruOW2-8IQQ_5RWlgZaE9-4" target="ruOW2-8IQQ_5RWlgZaE9-5">
          <mxGeometry width="50" height="50" relative="1" as="geometry">
            <mxPoint x="390" y="420" as="sourcePoint" />
            <mxPoint x="440" y="370" as="targetPoint" />
          </mxGeometry>
        </mxCell>
        <mxCell id="ruOW2-8IQQ_5RWlgZaE9-14" value="" style="endArrow=classic;html=1;rounded=0;exitX=0.5;exitY=1;exitDx=0;exitDy=0;entryX=0.5;entryY=0;entryDx=0;entryDy=0;" edge="1" parent="1" source="ruOW2-8IQQ_5RWlgZaE9-5" target="ruOW2-8IQQ_5RWlgZaE9-6">
          <mxGeometry width="50" height="50" relative="1" as="geometry">
            <mxPoint x="390" y="600" as="sourcePoint" />
            <mxPoint x="440" y="550" as="targetPoint" />
          </mxGeometry>
        </mxCell>
        <mxCell id="ruOW2-8IQQ_5RWlgZaE9-15" value="" style="endArrow=classic;html=1;rounded=0;exitX=0.5;exitY=1;exitDx=0;exitDy=0;entryX=0.5;entryY=0;entryDx=0;entryDy=0;" edge="1" parent="1" source="ruOW2-8IQQ_5RWlgZaE9-6" target="ruOW2-8IQQ_5RWlgZaE9-8">
          <mxGeometry width="50" height="50" relative="1" as="geometry">
            <mxPoint x="390" y="720" as="sourcePoint" />
            <mxPoint x="440" y="670" as="targetPoint" />
          </mxGeometry>
        </mxCell>
        <mxCell id="ruOW2-8IQQ_5RWlgZaE9-16" value="" style="endArrow=classic;html=1;rounded=0;exitX=0;exitY=0.75;exitDx=0;exitDy=0;entryX=0.5;entryY=0;entryDx=0;entryDy=0;" edge="1" parent="1" source="ruOW2-8IQQ_5RWlgZaE9-6" target="ruOW2-8IQQ_5RWlgZaE9-7">
          <mxGeometry width="50" height="50" relative="1" as="geometry">
            <mxPoint x="390" y="640" as="sourcePoint" />
            <mxPoint x="440" y="590" as="targetPoint" />
            <Array as="points">
              <mxPoint x="225" y="690" />
            </Array>
          </mxGeometry>
        </mxCell>
        <mxCell id="ruOW2-8IQQ_5RWlgZaE9-17" value="" style="endArrow=classic;html=1;rounded=0;exitX=1;exitY=0.75;exitDx=0;exitDy=0;entryX=0.5;entryY=0;entryDx=0;entryDy=0;" edge="1" parent="1" source="ruOW2-8IQQ_5RWlgZaE9-6" target="ruOW2-8IQQ_5RWlgZaE9-10">
          <mxGeometry width="50" height="50" relative="1" as="geometry">
            <mxPoint x="480" y="680" as="sourcePoint" />
            <mxPoint x="530" y="630" as="targetPoint" />
            <Array as="points">
              <mxPoint x="605" y="690" />
            </Array>
          </mxGeometry>
        </mxCell>
        <mxCell id="ruOW2-8IQQ_5RWlgZaE9-18" value="" style="endArrow=none;html=1;rounded=0;exitX=1;exitY=0.75;exitDx=0;exitDy=0;entryX=0.5;entryY=0;entryDx=0;entryDy=0;" edge="1" parent="1" source="U0gTRQSScCt8Vi8ky5Mu-1" target="ruOW2-8IQQ_5RWlgZaE9-9">
          <mxGeometry width="50" height="50" relative="1" as="geometry">
            <mxPoint x="390" y="410" as="sourcePoint" />
            <mxPoint x="440" y="360" as="targetPoint" />
            <Array as="points">
              <mxPoint x="695" y="200" />
            </Array>
          </mxGeometry>
        </mxCell>
        <mxCell id="ruOW2-8IQQ_5RWlgZaE9-19" value="" style="endArrow=none;html=1;rounded=0;exitX=1;exitY=0.25;exitDx=0;exitDy=0;entryX=0.5;entryY=1;entryDx=0;entryDy=0;" edge="1" parent="1" source="ruOW2-8IQQ_5RWlgZaE9-6" target="ruOW2-8IQQ_5RWlgZaE9-9">
          <mxGeometry width="50" height="50" relative="1" as="geometry">
            <mxPoint x="390" y="600" as="sourcePoint" />
            <mxPoint x="440" y="550" as="targetPoint" />
            <Array as="points">
              <mxPoint x="695" y="630" />
            </Array>
          </mxGeometry>
        </mxCell>
        <mxCell id="ruOW2-8IQQ_5RWlgZaE9-20" value="" style="endArrow=none;html=1;rounded=0;exitX=1;exitY=0.5;exitDx=0;exitDy=0;" edge="1" parent="1" source="ruOW2-8IQQ_5RWlgZaE9-4">
          <mxGeometry width="50" height="50" relative="1" as="geometry">
            <mxPoint x="480" y="340" as="sourcePoint" />
            <mxPoint x="690" y="340" as="targetPoint" />
          </mxGeometry>
        </mxCell>
        <mxCell id="ruOW2-8IQQ_5RWlgZaE9-21" value="" style="endArrow=none;html=1;rounded=0;exitX=1;exitY=0.5;exitDx=0;exitDy=0;" edge="1" parent="1" source="ruOW2-8IQQ_5RWlgZaE9-5">
          <mxGeometry width="50" height="50" relative="1" as="geometry">
            <mxPoint x="390" y="470" as="sourcePoint" />
            <mxPoint x="690" y="500" as="targetPoint" />
          </mxGeometry>
        </mxCell>
        <mxCell id="ruOW2-8IQQ_5RWlgZaE9-22" value="" style="endArrow=none;html=1;rounded=0;entryX=0.5;entryY=1;entryDx=0;entryDy=0;" edge="1" parent="1" target="ruOW2-8IQQ_5RWlgZaE9-9">
          <mxGeometry width="50" height="50" relative="1" as="geometry">
            <mxPoint x="670" y="500" as="sourcePoint" />
            <mxPoint x="760" y="500" as="targetPoint" />
            <Array as="points">
              <mxPoint x="695" y="500" />
            </Array>
          </mxGeometry>
        </mxCell>
        <mxCell id="ruOW2-8IQQ_5RWlgZaE9-23" value="" style="endArrow=none;html=1;rounded=0;entryX=0.5;entryY=0;entryDx=0;entryDy=0;" edge="1" parent="1" target="ruOW2-8IQQ_5RWlgZaE9-9">
          <mxGeometry width="50" height="50" relative="1" as="geometry">
            <mxPoint x="640" y="340" as="sourcePoint" />
            <mxPoint x="680" y="300" as="targetPoint" />
            <Array as="points">
              <mxPoint x="695" y="340" />
            </Array>
          </mxGeometry>
        </mxCell>
      </root>
    </mxGraphModel>
  </diagram>
</mxfile>
